<?xml version="1.0" encoding="UTF-8" standalone="no"?>
<!-- Created with Inkscape (http://www.inkscape.org/) -->

<svg
   width="97.631348mm"
   height="108.21296mm"
   viewBox="0 0 97.631348 108.21296"
   version="1.1"
   id="svg1"
   xml:space="preserve"
   xmlns="http://www.w3.org/2000/svg"
   xmlns:svg="http://www.w3.org/2000/svg"><defs
     id="defs1" /><g
     id="layer1"
     style="display:none"
     transform="translate(-402.19147,-105.16971)"><path
       style="fill:#000000"
       d="M 318.31858,134.79766 V -0.66899467 H 453.78525 589.25191 V 134.79766 270.26432 H 453.78525 318.31858 Z m 122.17623,44.51614 c 0.0661,-5.72912 0.0389,-6.1525 -0.39688,-6.16522 -0.25734,-0.008 -5.40899,-0.0373 -11.4481,-0.0661 l -10.98021,-0.0525 -0.0688,-12.23698 -0.0688,-12.23698 h -6.34736 -6.34735 v 18.5227 18.52269 l 17.79323,-0.068 17.79322,-0.068 z m 61.97377,-19.44741 V 134.13512 L 478.10646,109.794 453.74435,85.452876 l -4.67591,4.800627 c -2.57174,2.640342 -8.70542,8.917132 -13.63038,13.948417 l -8.95447,9.1478 14.64302,14.50049 c 8.05365,7.97528 16.36041,16.18649 18.45946,18.24716 l 3.81645,3.74665 -4.87478,5.00037 -4.87479,5.00036 -18.04996,-17.88136 -18.04996,-17.88135 0.0583,-16.93334 0.0583,-16.933324 11.44801,-0.06896 11.44801,-0.06896 -0.0709,-6.28104 -0.0709,-6.28104 -16.66875,-0.07891 c -9.16781,-0.0434 -17.17476,-0.0063 -17.79322,0.08236 l -1.12448,0.161266 v 25.747588 25.74759 l 24.37906,24.24244 c 13.40849,13.33335 24.46722,24.24245 24.57497,24.24245 0.20396,0 27.05526,-27.43516 27.19079,-27.78203 0.0424,-0.10857 -8.14543,-8.34267 -18.19522,-18.29799 l -18.27235,-18.10059 4.66862,-4.83002 c 2.56774,-2.65651 4.76268,-4.79533 4.87763,-4.75292 0.11495,0.0424 8.26492,8.09336 18.11103,17.89101 12.33088,12.27018 17.85452,17.93772 17.74937,18.21174 -0.084,0.21881 -0.15266,7.76849 -0.15266,16.77708 v 16.37925 l -11.5094,-0.0629 -11.5094,-0.0629 2e-5,6.28385 3e-5,6.28386 h 17.85937 17.85938 z m 0,-63.532525 V 77.713814 l -0.82683,-0.165365 c -1.08999,-0.217998 -29.89686,-0.211191 -32.70911,0.0077 l -2.18281,0.169922 v 6.178492 6.178492 h 11.50937 11.50938 v 12.435425 12.43541 h 6.35 6.35 z"
       id="path1" /></g><g
     id="layer2"
     transform="translate(-402.19147,-105.16971)"><path
       d="m 437.84898,207.09505 c 0.0661,-5.72912 0.0389,-6.1525 -0.39688,-6.16522 -0.25734,-0.008 -5.40899,-0.0373 -11.4481,-0.0661 l -10.98021,-0.0525 -0.0688,-12.23698 -0.0688,-12.23698 h -6.34736 -6.34735 v 18.5227 18.52269 l 17.79323,-0.068 17.79322,-0.068 z m 61.97377,-19.44741 v -25.73127 l -24.36212,-24.34112 -24.36211,-24.34112 -4.67591,4.80062 c -2.57174,2.64035 -8.70542,8.91714 -13.63038,13.94842 l -8.95447,9.1478 14.64302,14.50049 c 8.05365,7.97528 16.36041,16.18649 18.45946,18.24716 l 3.81645,3.74665 -4.87478,5.00037 -4.87479,5.00036 -18.04996,-17.88136 -18.04996,-17.88135 0.0583,-16.93334 0.0583,-16.93332 11.44801,-0.069 11.44801,-0.069 -0.0709,-6.28104 -0.0709,-6.28104 -16.66875,-0.0789 c -9.16781,-0.0434 -17.17476,-0.006 -17.79322,0.0824 l -1.12448,0.16126 v 25.74759 25.74759 l 24.37906,24.24244 c 13.40849,13.33335 24.46722,24.24245 24.57497,24.24245 0.20396,0 27.05526,-27.43516 27.19079,-27.78203 0.0424,-0.10857 -8.14543,-8.34267 -18.19522,-18.29799 l -18.27235,-18.10059 4.66862,-4.83002 c 2.56774,-2.65651 4.76268,-4.79533 4.87763,-4.75292 0.11495,0.0424 8.26492,8.09336 18.11103,17.89101 12.33088,12.27018 17.85452,17.93772 17.74937,18.21174 -0.084,0.21881 -0.15266,7.76849 -0.15266,16.77708 v 16.37925 l -11.5094,-0.0629 -11.5094,-0.0629 2e-5,6.28385 3e-5,6.28386 h 17.85937 17.85938 z m 0,-63.53252 v -18.62006 l -0.82683,-0.16536 c -1.08999,-0.218 -29.89686,-0.21119 -32.70911,0.008 l -2.18281,0.16992 v 6.17849 6.1785 h 11.50937 11.50938 v 12.43542 12.43541 h 6.35 6.35 z"
       style="fill:#000000;fill-opacity:1"
       id="path1-6" /></g></svg>
